<?xml version="1.0" encoding="UTF-8" standalone="no"?>
<svg
   xmlns:dc="http://purl.org/dc/elements/1.1/"
   xmlns:cc="http://creativecommons.org/ns#"
   xmlns:rdf="http://www.w3.org/1999/02/22-rdf-syntax-ns#"
   xmlns:svg="http://www.w3.org/2000/svg"
   xmlns="http://www.w3.org/2000/svg"
   xmlns:sodipodi="http://sodipodi.sourceforge.net/DTD/sodipodi-0.dtd"
   xmlns:inkscape="http://www.inkscape.org/namespaces/inkscape"
   width="1003.6"
   height="1003.6"
   viewBox="-50 -30 100.36 100.36"
   id="svg2"
   version="1.1"
   inkscape:version="0.48.4 r9939"
   sodipodi:docname="Ajax.svg">
  <metadata
     id="metadata14">
    <rdf:RDF>
      <cc:Work
         rdf:about="">
        <dc:format>image/svg+xml</dc:format>
        <dc:type
           rdf:resource="http://purl.org/dc/dcmitype/StillImage" />
        <dc:title />
      </cc:Work>
    </rdf:RDF>
  </metadata>
  <defs
     id="defs12" />
  <sodipodi:namedview
     pagecolor="#ffffff"
     bordercolor="#666666"
     borderopacity="1"
     objecttolerance="10"
     gridtolerance="10"
     guidetolerance="10"
     inkscape:pageopacity="0"
     inkscape:pageshadow="2"
     inkscape:window-width="1280"
     inkscape:window-height="1001"
     id="namedview10"
     showgrid="false"
     fit-margin-top="1.8"
     fit-margin-left="1.8"
     fit-margin-right="1.8"
     fit-margin-bottom="1.8"
     inkscape:zoom="0.39595938"
     inkscape:cx="506.30214"
     inkscape:cy="589.34901"
     inkscape:window-x="-8"
     inkscape:window-y="-8"
     inkscape:window-maximized="1"
     inkscape:current-layer="svg2"
     showguides="true"
     inkscape:guide-bbox="true" />
  <path
     inkscape:connector-curvature="0"
     id="path3124"
     d="m 0.17999242,-29.82 c 27.61424658,0 50.00000858,22.38574 50.00000858,49.99999 0,27.614242 -22.385762,50.000011 -50.00000858,50.000011 C -27.43424,70.180001 -49.82,47.794232 -49.82,20.17999 -49.82,-7.43426 -27.43424,-29.82 0.17999242,-29.82 z"
     style="fill:#c0111e;fill-opacity:1;stroke:none"
     sodipodi:nodetypes="sssss" />
  <path
     style="opacity:0.98999999000000005;fill:#ffffff;fill-opacity:1;stroke:none"
     d="m -48.245,7.68 c -1.028093,3.994863 -1.575,8.184216 -1.575,12.5 0,4.315782 0.546907,8.505138 1.575,12.5 l 96.85,0 c 1.028092,-3.994862 1.575,-8.184218 1.575,-12.5 0,-4.315784 -0.546908,-8.505137 -1.575,-12.5 l -96.85,0 z"
     id="rect2994"
     inkscape:connector-curvature="0" />
  <path
     style="font-size:48px;font-style:normal;font-weight:bold;text-align:center;text-anchor:middle;fill:#000000;fill-opacity:1;stroke:none;font-family:DejaVu Sans"
     d="m -40.977262,11.775213 c -1.094006,1.4e-5 -2.087291,0.181795 -2.981703,0.551357 -0.894414,0.369618 -1.576515,0.914287 -2.042211,1.627581 -0.465697,0.713336 -0.696908,1.477556 -0.696908,2.298036 0,0.746591 0.188303,1.422129 0.569001,2.024553 0.380685,0.602453 0.961669,1.106357 1.737858,1.512914 0.598741,0.31786 1.642895,0.655989 3.136076,1.014485 1.493138,0.358509 2.457363,0.623949 2.893489,0.793945 0.680012,0.25872 1.168715,0.576453 1.464387,0.957138 0.295672,0.38067 0.441085,0.826436 0.441085,1.336481 0,0.502648 -0.151976,0.968796 -0.458729,1.393815 -0.30678,0.425032 -0.77434,0.757331 -1.402636,1.001245 -0.628281,0.243914 -1.354053,0.366104 -2.17452,0.366104 -0.924039,0 -1.752931,-0.159226 -2.492112,-0.480784 -0.73918,-0.321559 -1.285274,-0.744756 -1.636402,-1.265895 -0.351114,-0.52111 -0.574364,-1.184989 -0.670442,-1.998101 L -47.32,23.084519 c 0.0295,1.08661 0.32551,2.058794 0.890983,2.919953 0.565473,0.861145 1.347914,1.507592 2.34213,1.93635 0.994189,0.428716 2.225248,0.643978 3.696256,0.643978 1.160514,0 2.203949,-0.214556 3.131671,-0.639574 0.927658,-0.425074 1.639575,-1.021303 2.134834,-1.786369 0.495277,-0.765024 0.741016,-1.578744 0.741016,-2.443587 0,-0.872252 -0.22395,-1.642287 -0.674853,-2.311261 -0.450884,-0.668961 -1.148972,-1.222323 -2.095137,-1.658463 -0.650484,-0.295659 -1.851042,-0.64107 -3.599217,-1.036547 -1.748176,-0.395477 -2.827983,-0.783048 -3.241936,-1.160034 -0.421334,-0.376987 -0.630751,-0.853962 -0.630751,-1.437924 0,-0.672658 0.29594,-1.24784 0.890982,-1.724632 0.595043,-0.476761 1.543994,-0.714536 2.844976,-0.71455 1.249226,1.4e-5 2.192306,0.260288 2.831738,0.785123 0.639362,0.524823 1.013863,1.301435 1.124748,2.328906 l 2.064262,-0.154371 c -0.037,-0.953539 -0.303134,-1.808699 -0.798356,-2.562685 -0.495276,-0.753959 -1.205735,-1.323299 -2.126006,-1.711394 -0.920284,-0.388065 -1.979697,-0.582211 -3.184602,-0.582225 z m 67.123638,0 c -1.434006,1.4e-5 -2.745073,0.325045 -3.93885,0.979199 -1.193775,0.654196 -2.114412,1.611122 -2.761164,2.871441 -0.646797,1.260319 -0.970376,2.74009 -0.970376,4.432852 0,1.552294 0.287251,3.000774 0.860106,4.353472 0.572856,1.352714 1.407596,2.387481 2.505338,3.10079 1.097694,0.713323 2.522201,1.071833 4.27407,1.071833 1.692737,0 3.124489,-0.466106 4.296125,-1.393815 1.171588,-0.927666 1.983823,-2.273646 2.434766,-4.040298 l -2.152473,-0.542535 c -0.295677,1.367505 -0.862887,2.397121 -1.698161,3.091981 -0.83532,0.694819 -1.851796,1.04095 -3.056689,1.04095 -0.990493,0 -1.91113,-0.253004 -2.761164,-0.763077 -0.850082,-0.510029 -1.476127,-1.280093 -1.879004,-2.311261 -0.40283,-1.031169 -0.60428,-2.238967 -0.60428,-3.621265 0,-1.071818 0.167238,-2.113842 0.507244,-3.12285 0.34005,-1.008981 0.929721,-1.809546 1.768732,-2.4083 0.838964,-0.598741 1.882404,-0.89979 3.131672,-0.899805 1.086574,1.5e-5 1.991232,0.271989 2.708235,0.811589 0.717004,0.539629 1.263819,1.397625 1.64082,2.580314 l 2.117186,-0.498414 c -0.436133,-1.500535 -1.211321,-2.66544 -2.320083,-3.493358 -1.108811,-0.827877 -2.47583,-1.239429 -4.10205,-1.239443 z m -57.199328,0.277888 0,16.253811 2.148062,0 0,-16.253811 z m 5.839907,0 0,16.253811 10.158086,0 0,-1.918694 -8.005613,0 0,-14.335117 z m 12.773694,0 0,16.253811 12.12971484,0 0,-1.918694 -9.97724284,0 0,-5.53115 8.993633,0 0,-1.909885 -8.993633,0 0,-4.979793 9.60232424,0 0,-1.914289 z m 15.1025983,0 0,16.253811 2.0642572,0 0,-12.773693 8.5349075,12.773693 2.209815,0 0,-16.253811 -2.064258,0 0,12.760452 -8.5393188,-12.760452 z m 32.8869667,0 0,16.253811 12.129715,0 7.1e-5,-1.918694 -9.977313,0 0,-5.53115 8.989222,0 0,-1.909885 -8.989222,0 0,-4.979793 9.602324,0 0,-1.914289 z"
     id="path2990"
     inkscape:connector-curvature="0"
     sodipodi:nodetypes="ccsscccccscssssccccsccsscscscccccccccccsscsscccsccsccccccccccccccccccccccccccccccccccccccccccccccccccccccccc" />
  <path
     sodipodi:nodetypes="sssss"
     style="fill:none;stroke:none"
     d="m 0.17999242,-29.82 c 27.61424658,0 50.00000858,22.38574 50.00000858,49.99999 0,27.614242 -22.385762,50.000011 -50.00000858,50.000011 C -27.43424,70.180001 -49.82,47.794232 -49.82,20.17999 -49.82,-7.43426 -27.43424,-29.82 0.17999242,-29.82 z"
     id="path3790"
     inkscape:connector-curvature="0" />
  <path
     inkscape:connector-curvature="0"
     id="path3792"
     d="m 0.17999242,-29.82 c 27.61424658,0 50.00000858,22.38574 50.00000858,49.99999 0,27.614242 -22.385762,50.000011 -50.00000858,50.000011 C -27.43424,70.180001 -49.82,47.794232 -49.82,20.17999 -49.82,-7.43426 -27.43424,-29.82 0.17999242,-29.82 z"
     style="fill:none;stroke:none"
     sodipodi:nodetypes="sssss" />
  <path
     sodipodi:nodetypes="sssss"
     style="fill:none;fill-opacity:1;stroke:#c0111e;stroke-opacity:1;stroke-width:0.30000000999999998;stroke-miterlimit:4;stroke-dasharray:none"
     d="m 0.17999242,-29.82 c 27.61424658,0 50.00000858,22.38574 50.00000858,49.99999 0,27.614242 -22.385762,50.000011 -50.00000858,50.000011 C -27.43424,70.180001 -49.82,47.794232 -49.82,20.17999 -49.82,-7.43426 -27.43424,-29.82 0.17999242,-29.82 z"
     id="path3853"
     inkscape:connector-curvature="0" />
</svg>
